<svg width="16" height="17" viewBox="0 0 16 17" fill="none" xmlns="http://www.w3.org/2000/svg">
<path d="M5.46159 1.80769C5.38396 1.62137 5.20191 1.5 5.00007 1.5C4.79822 1.5 4.61617 1.62137 4.53854 1.80769L2.03859 7.80769C1.93238 8.06259 2.05292 8.35533 2.30782 8.46154C2.56271 8.56775 2.85544 8.44721 2.96165 8.19231L3.66684 6.49982H6.33329L7.03848 8.19231C7.14469 8.44721 7.43742 8.56775 7.69231 8.46154C7.94721 8.35533 8.06775 8.06259 7.96154 7.80769L5.46159 1.80769ZM4.08349 5.49982L5.00007 3.3L5.91664 5.49982H4.08349ZM2.50048 9.99982C2.50048 9.72367 2.72433 9.49982 3.00047 9.49982H6.50059C6.68702 9.49982 6.85797 9.60355 6.94407 9.76892C7.03017 9.93429 7.0171 10.1338 6.91019 10.2866L3.96081 14.4998H6.50039C6.77653 14.4998 7.00038 14.7237 7.00038 14.9998C7.00038 15.276 6.77653 15.4998 6.50039 15.4998H3.00047C2.81403 15.4998 2.64308 15.3961 2.55699 15.2307C2.47089 15.0653 2.48395 14.8658 2.59087 14.7131L5.54025 10.4998H3.00047C2.72433 10.4998 2.50048 10.276 2.50048 9.99982ZM12.5 1.5C12.7761 1.5 13 1.72386 13 2V13.7929L14.1464 12.6464C14.3417 12.4512 14.6583 12.4512 14.8536 12.6464C15.0488 12.8417 15.0488 13.1583 14.8536 13.3536L12.8536 15.3536C12.6583 15.5488 12.3417 15.5488 12.1464 15.3536L10.1464 13.3536C9.95118 13.1583 9.95118 12.8417 10.1464 12.6464C10.3417 12.4512 10.6583 12.4512 10.8536 12.6464L12 13.7929V2C12 1.72386 12.2239 1.5 12.5 1.5Z" fill="#2E2E2E"/>
</svg>
