<svg width="16" height="17" viewBox="0 0 16 17" fill="none" xmlns="http://www.w3.org/2000/svg">
<path d="M6 9.5C6.93191 9.5 7.71496 10.1374 7.93699 11L13.5 11C13.7761 11 14 11.2239 14 11.5C14 11.7455 13.8231 11.9496 13.5899 11.9919L13.5 12L7.93673 12.001C7.71435 12.8631 6.93155 13.5 6 13.5C5.06845 13.5 4.28565 12.8631 4.06327 12.001L2.5 12C2.22386 12 2 11.7761 2 11.5C2 11.2545 2.17688 11.0504 2.41012 11.0081L2.5 11L4.06301 11C4.28504 10.1374 5.06809 9.5 6 9.5ZM6 10.5C5.44772 10.5 5 10.9477 5 11.5C5 12.0523 5.44772 12.5 6 12.5C6.55228 12.5 7 12.0523 7 11.5C7 10.9477 6.55228 10.5 6 10.5ZM10 3.5C10.9319 3.5 11.715 4.13738 11.937 4.99998L13.5 5C13.7761 5 14 5.22386 14 5.5C14 5.74546 13.8231 5.94961 13.5899 5.99194L13.5 6L11.9367 6.00102C11.7144 6.86312 10.9316 7.5 10 7.5C9.06845 7.5 8.28565 6.86312 8.06327 6.00102L2.5 6C2.22386 6 2 5.77614 2 5.5C2 5.25454 2.17688 5.05039 2.41012 5.00806L2.5 5L8.06301 4.99998C8.28504 4.13738 9.06809 3.5 10 3.5ZM10 4.5C9.44772 4.5 9 4.94772 9 5.5C9 6.05228 9.44772 6.5 10 6.5C10.5523 6.5 11 6.05228 11 5.5C11 4.94772 10.5523 4.5 10 4.5Z" fill="#2E2E2E"/>
</svg>
