<svg width="16" height="17" viewBox="0 0 16 17" fill="none" xmlns="http://www.w3.org/2000/svg">
<path d="M2.50003 2C2.50003 1.72386 2.7239 1.5 3.00005 1.5H6.50044C6.68689 1.5 6.85785 1.60373 6.94395 1.7691C7.03006 1.93447 7.01699 2.134 6.91007 2.28673L3.96046 6.49995H6.50024C6.7764 6.49995 7.00027 6.72381 7.00027 6.99995C7.00027 7.27609 6.7764 7.49994 6.50024 7.49994H3.00005C2.8136 7.49994 2.64264 7.39621 2.55654 7.23085C2.47044 7.06548 2.4835 6.86594 2.59042 6.71321L5.54003 2.49999H3.00005C2.7239 2.49999 2.50003 2.27614 2.50003 2ZM5.46185 8.80762C5.38421 8.6213 5.20215 8.49993 5.00029 8.49993C4.79843 8.49993 4.61637 8.6213 4.53873 8.80762L2.03859 14.8076C1.93238 15.0625 2.05292 15.3552 2.30784 15.4614C2.56275 15.5676 2.85551 15.4471 2.96172 15.1922L3.66689 13.4999H6.3337L7.03886 15.1922C7.14508 15.4471 7.43783 15.5676 7.69274 15.4614C7.94766 15.3552 8.0682 15.0625 7.96199 14.8076L5.46185 8.80762ZM4.08358 12.4999L5.00029 10.2999L5.91701 12.4999H4.08358ZM12.5 1.5C12.7761 1.5 13 1.72386 13 2V13.7929L14.1464 12.6464C14.3417 12.4512 14.6583 12.4512 14.8536 12.6464C15.0488 12.8417 15.0488 13.1583 14.8536 13.3536L12.8536 15.3536C12.6583 15.5488 12.3417 15.5488 12.1464 15.3536L10.1464 13.3536C9.95118 13.1583 9.95118 12.8417 10.1464 12.6464C10.3417 12.4512 10.6583 12.4512 10.8536 12.6464L12 13.7929V2C12 1.72386 12.2239 1.5 12.5 1.5Z" fill="#2E2E2E"/>
</svg>
